# xmcd CD Database Entry
#
# Track frame offsets:
# 150
# 33244
# 56249
# 74196
# 94751
# 127886
# 160603
# 192254
# 223258
#
# Disc length: 3243 seconds
#
# Revision: 2
# Processed by: cddbd v1.4b42PL1 Copyright (c) Steve Scherf et al.
# Submitted via: tcd 2.0b
#
DISCID=840ca909
DTITLE=The Organ Trio - ice cream girl
DYEAR=1900
DGENRE=
TTITLE0=minnie's blues
TTITLE1=ice cream girl
TTITLE2=estrellas
TTITLE3=san sebastian
TTITLE4=good for the soul
TTITLE5=soul message
TTITLE6=calimocho
TTITLE7=silver time
TTITLE8=barcola
EXTD=
EXTT0=
EXTT1=
EXTT2=
EXTT3=
EXTT4=
EXTT5=
EXTT6=
EXTT7=
EXTT8=
PLAYORDER=
